<?xml version="1.0" encoding="UTF-8" standalone="no"?>
<svg
   viewBox="0 0 512 512"
   width="512"
   height="512"
   version="1.1"
   id="svg8"
   sodipodi:docname="icon.svg"
   inkscape:version="1.4.4 (dcaf3e7, 2026-05-05)"
   xmlns:inkscape="http://www.inkscape.org/namespaces/inkscape"
   xmlns:sodipodi="http://sodipodi.sourceforge.net/DTD/sodipodi-0.dtd"
   xmlns="http://www.w3.org/2000/svg"
   xmlns:svg="http://www.w3.org/2000/svg">
  <defs
     id="defs8" />
  <sodipodi:namedview
     id="namedview8"
     pagecolor="#ffffff"
     bordercolor="#000000"
     borderopacity="0.25"
     inkscape:showpageshadow="2"
     inkscape:pageopacity="0.0"
     inkscape:pagecheckerboard="0"
     inkscape:deskcolor="#d1d1d1"
     inkscape:zoom="1.71875"
     inkscape:cx="256"
     inkscape:cy="256.29091"
     inkscape:window-width="1024"
     inkscape:window-height="1186"
     inkscape:window-x="0"
     inkscape:window-y="30"
     inkscape:window-maximized="0"
     inkscape:current-layer="svg8" />
  <!-- Bakgrund -->
  <rect
     width="512"
     height="512"
     rx="108"
     fill="#162b20"
     id="rect1" />
  <!-- ── Grodd ── -->
  <path
     d="M185 379 L185 179"
     stroke="white"
     stroke-width="14"
     stroke-linecap="round"
     fill="none"
     id="path1" />
  <path
     d="M185 259 C153 234 103 197 89 145 C127 139 173 169 185 217"
     stroke="white"
     stroke-width="14"
     stroke-linecap="round"
     stroke-linejoin="round"
     fill="none"
     id="path2" />
  <path
     d="M185 209 C195 161 241 135 277 141 C265 193 221 223 185 244"
     stroke="white"
     stroke-width="14"
     stroke-linecap="round"
     stroke-linejoin="round"
     fill="none"
     id="path3" />
  <path
     d="M185 179 C185 156 199 139 213 132"
     stroke="white"
     stroke-width="14"
     stroke-linecap="round"
     fill="none"
     id="path4" />
  <!-- ── Pil ── -->
  <line
     x1="207"
     y1="282"
     x2="318"
     y2="282"
     stroke="white"
     stroke-width="10"
     stroke-linecap="round"
     id="line4" />
  <polygon
     points="333,282 318,272 318,292"
     fill="white"
     id="polygon4" />
  <!-- ── Nod ── -->
  <line
     x1="362"
     y1="242"
     x2="332"
     y2="322"
     stroke="white"
     stroke-width="5"
     stroke-linecap="round"
     id="line5" />
  <line
     x1="362"
     y1="242"
     x2="392"
     y2="322"
     stroke="white"
     stroke-width="5"
     stroke-linecap="round"
     id="line6" />
  <rect
     x="348.12988"
     y="218.58182"
     width="27.158442"
     height="25.963636"
     rx="3.3948052"
     fill="#ffffff"
     id="rect6"
     style="stroke-width:1.10643" />
  <rect
     x="314.76364"
     y="321.20001"
     width="27.158442"
     height="25.963636"
     rx="3.3948052"
     fill="#ffffff"
     id="rect7"
     style="stroke-width:1.10643" />
  <rect
     x="380.33249"
     y="321.20001"
     width="27.158442"
     height="25.963636"
     rx="3.3948052"
     fill="#ffffff"
     id="rect8"
     style="stroke-width:1.10643" />
</svg>
